<svg width="32" height="16" viewBox="0 0 32 16" fill="none" xmlns="http://www.w3.org/2000/svg">
<path d="M9.72509 1H5.90772C5.45595 1 5.08971 1.36624 5.08971 1.81801V13.8155C5.08971 14.2673 5.45595 14.6335 5.90772 14.6335H9.72509C10.1769 14.6335 10.5431 14.2673 10.5431 13.8155V1.81801C10.5431 1.36624 10.1769 1 9.72509 1Z" stroke="#A6A6A6" stroke-width="2" stroke-linecap="round" stroke-linejoin="round"/>
<path d="M26.0858 1H22.2684C21.8166 1 21.4504 1.36624 21.4504 1.81801V13.8155C21.4504 14.2673 21.8166 14.6335 22.2684 14.6335H26.0858C26.5376 14.6335 26.9038 14.2673 26.9038 13.8155V1.81801C26.9038 1.36624 26.5376 1 26.0858 1Z" stroke="#A6A6A6" stroke-width="2" stroke-linecap="round" stroke-linejoin="round"/>
<path d="M1 11.0886V4.54457C1 4.0928 1.36624 3.72656 1.81801 3.72656H4.27203C4.72381 3.72656 5.09004 4.0928 5.09004 4.54457V11.0886C5.09004 11.5404 4.72381 11.9066 4.27203 11.9066H1.81801C1.36624 11.9066 1 11.5404 1 11.0886Z" stroke="#A6A6A6" stroke-width="2" stroke-linecap="round" stroke-linejoin="round"/>
<path d="M30.9937 11.0886V4.54457C30.9937 4.0928 30.6275 3.72656 30.1757 3.72656H27.7217C27.2699 3.72656 26.9037 4.0928 26.9037 4.54457V11.0886C26.9037 11.5404 27.2699 11.9066 27.7217 11.9066H30.1757C30.6275 11.9066 30.9937 11.5404 30.9937 11.0886Z" stroke="#A6A6A6" stroke-width="2" stroke-linecap="round" stroke-linejoin="round"/>
<path d="M10.543 7.81689H21.4498" stroke="#A6A6A6" stroke-width="2" stroke-linecap="round" stroke-linejoin="round"/>
</svg>
